[Header]
FileType HTR
DataType HTRS
FileVersion 1
NumSegments 64
NumFrames 4
DataFrameRate 30
EulerRotationOrder ZYX
CalibrationUnits mm
RotationUnits Degrees
GlobalAxisofGravity Y
BoneLengthAxis Y
ScaleFactor 1.0
[SegmentNames&Hierarchy]
Hips	GLOBAL
Spine	Hips
Spine1	Spine
Spine2	Spine1
Neck	Spine2
Head	Neck
LeftEye	Head
RightEye	Head
LeftShoulder	Spine2
LeftArm	LeftShoulder
LeftForeArm	LeftArm
LeftHand	LeftForeArm
LeftHandThumb1	LeftHand
LeftHandThumb2	LeftHandThumb1
LeftHandThumb3	LeftHandThumb2
LeftHandThumb4	LeftHandThumb3
LeftHandIndex1	LeftHand
LeftHandIndex2	LeftHandIndex1
LeftHandIndex3	LeftHandIndex2
LeftHandIndex4	LeftHandIndex3
LeftHandMiddle1	LeftHand
LeftHandMiddle2	LeftHandMiddle1
LeftHandMiddle3	LeftHandMiddle2
LeftHandMiddle4	LeftHandMiddle3
LeftHandRing1	LeftHand
LeftHandRing2	LeftHandRing1
LeftHandRing3	LeftHandRing2
LeftHandRing4	LeftHandRing3
LeftHandPinky1	LeftHand
LeftHandPinky2	LeftHandPinky1
LeftHandPinky3	LeftHandPinky2
LeftHandPinky4	LeftHandPinky3
RightShoulder	Spine2
RightArm	RightShoulder
RightForeArm	RightArm
RightHand	RightForeArm
RightHandPinky1	RightHand
RightHandPinky2	RightHandPinky1
RightHandPinky3	RightHandPinky2
RightHandPinky4	RightHandPinky3
RightHandRing1	RightHand
RightHandRing2	RightHandRing1
RightHandRing3	RightHandRing2
RightHandRing4	RightHandRing3
RightHandMiddle1	RightHand
RightHandMiddle2	RightHandMiddle1
RightHandMiddle3	RightHandMiddle2
RightHandMiddle4	RightHandMiddle3
RightHandIndex1	RightHand
RightHandIndex2	RightHandIndex1
RightHandIndex3	RightHandIndex2
RightHandIndex4	RightHandIndex3
RightHandThumb1	RightHand
RightHandThumb2	RightHandThumb1
RightHandThumb3	RightHandThumb2
RightHandThumb4	RightHandThumb3
LeftUpLeg	Hips
LeftLeg	LeftUpLeg
LeftFoot	LeftLeg
LeftToeBase	LeftFoot
RightUpLeg	Hips
RightLeg	RightUpLeg
RightFoot	RightLeg
RightToeBase	RightFoot
[BasePosition]
Hips	0	0	0	0	0	0	1
Spine	0	0	0	0	0	0	1
Spine1	0	0	0	0	0	0	1
Spine2	0	0	0	0	0	0	1
Neck	0	0	0	0	0	0	1
Head	0	0	0	0	0	0	1
LeftEye	0	0	0	0	0	0	1
RightEye	0	0	0	0	0	0	1
LeftShoulder	0	0	0	0	0	0	1
LeftArm	0	0	0	0	0	0	1
LeftForeArm	0	0	0	0	0	0	1
LeftHand	0	0	0	0	0	0	1
LeftHandThumb1	0	0	0	0	0	0	1
LeftHandThumb2	0	0	0	0	0	0	1
LeftHandThumb3	0	0	0	0	0	0	1
LeftHandThumb4	0	0	0	0	0	0	1
LeftHandIndex1	0	0	0	0	0	0	1
LeftHandIndex2	0	0	0	0	0	0	1
LeftHandIndex3	0	0	0	0	0	0	1
LeftHandIndex4	0	0	0	0	0	0	1
LeftHandMiddle1	0	0	0	0	0	0	1
LeftHandMiddle2	0	0	0	0	0	0	1
LeftHandMiddle3	0	0	0	0	0	0	1
LeftHandMiddle4	0	0	0	0	0	0	1
LeftHandRing1	0	0	0	0	0	0	1
LeftHandRing2	0	0	0	0	0	0	1
LeftHandRing3	0	0	0	0	0	0	1
LeftHandRing4	0	0	0	0	0	0	1
LeftHandPinky1	0	0	0	0	0	0	1
LeftHandPinky2	0	0	0	0	0	0	1
LeftHandPinky3	0	0	0	0	0	0	1
LeftHandPinky4	0	0	0	0	0	0	1
RightShoulder	0	0	0	0	0	0	1
RightArm	0	0	0	0	0	0	1
RightForeArm	0	0	0	0	0	0	1
RightHand	0	0	0	0	0	0	1
RightHandPinky1	0	0	0	0	0	0	1
RightHandPinky2	0	0	0	0	0	0	1
RightHandPinky3	0	0	0	0	0	0	1
RightHandPinky4	0	0	0	0	0	0	1
RightHandRing1	0	0	0	0	0	0	1
RightHandRing2	0	0	0	0	0	0	1
RightHandRing3	0	0	0	0	0	0	1
RightHandRing4	0	0	0	0	0	0	1
RightHandMiddle1	0	0	0	0	0	0	1
RightHandMiddle2	0	0	0	0	0	0	1
RightHandMiddle3	0	0	0	0	0	0	1
RightHandMiddle4	0	0	0	0	0	0	1
RightHandIndex1	0	0	0	0	0	0	1
RightHandIndex2	0	0	0	0	0	0	1
RightHandIndex3	0	0	0	0	0	0	1
RightHandIndex4	0	0	0	0	0	0	1
RightHandThumb1	0	0	0	0	0	0	1
RightHandThumb2	0	0	0	0	0	0	1
RightHandThumb3	0	0	0	0	0	0	1
RightHandThumb4	0	0	0	0	0	0	1
LeftUpLeg	0	0	0	0	0	0	1
LeftLeg	0	0	0	0	0	0	1
LeftFoot	0	0	0	0	0	0	1
LeftToeBase	0	0	0	0	0	0	1
RightUpLeg	0	0	0	0	0	0	1
RightLeg	0	0	0	0	0	0	1
RightFoot	0	0	0	0	0	0	1
RightToeBase	0	0	0	0	0	0	1
[Hips]
34	50.04532242	1271.318237	-60.73971176	16.06332779	3.632703543	-4.885021687	1.0
35	56.16143799	1247.150513	-48.93157196	14.22194576	1.603219986	-5.453219414	1.0
36	65.20949554	1221.983643	-35.66286469	12.39772701	-0.1417155713	-5.7626791	1.0
37	75.76793671	1190.686523	-14.18359566	10.32193661	-1.108171463	-5.946649075	1.0
[Spine]
34	0	101.8159943	1.315000057	12.68658352	2.546079874	0.8026098013	1.0
35	0	101.8159943	1.315000057	12.06539249	3.576341629	1.880238175	1.0
36	0	101.8159943	1.315000057	11.1429615	4.11697197	3.065012932	1.0
37	0	101.8159943	1.315000057	9.86350441	4.566197395	4.192349911	1.0
[Spine1]
34	0	100.8349991	-10.00800037	4.798634052	1.648781061	0.9329568148	1.0
35	0	100.8349991	-10.00800037	4.540698051	2.006345034	1.44206965	1.0
36	0	100.8349991	-10.00800037	4.098804474	2.232921362	1.832326055	1.0
37	0	100.8349991	-10.00800037	3.458953619	2.44590497	2.031112432	1.0
[Spine2]
34	0	91	-13.73399925	4.778720856	1.657045126	0.7963473797	1.0
35	0	91	-13.73399925	4.530465126	2.027829647	1.306983352	1.0
36	0	91	-13.73399925	4.09036684	2.272904634	1.701245308	1.0
37	0	91	-13.73399925	3.445563793	2.501457691	1.905023575	1.0
[Neck]
34	0	166.7169952	-25.16200066	19.01756287	-1.164015293	-4.073266506	1.0
35	0	166.7169952	-25.16200066	19.09145355	-1.39503181	-4.306399345	1.0
36	0	166.7169952	-25.16200066	19.53892136	-1.544799328	-4.305021763	1.0
37	0	166.7169952	-25.16200066	20.26608086	-1.754531384	-3.890113354	1.0
[Head]
34	0	96.17900085	16.84999847	-33.26952362	-7.58695507	10.46066952	1.0
35	0	96.17900085	16.84999847	-31.11322594	-8.267930984	8.843108177	1.0
36	0	96.17900085	16.84999847	-27.82921028	-8.594204903	7.008665085	1.0
37	0	96.17900085	16.84999847	-23.48474312	-8.962873459	5.726016998	1.0
[LeftEye]
34	30.6760006	64.09500122	92.83599854	0	0	0	1.0
35	30.6760006	64.09500122	92.83599854	0	0	0	1.0
36	30.6760006	64.09500122	92.83599854	0	0	0	1.0
37	30.6760006	64.09500122	92.83599854	0	0	0	1.0
[RightEye]
34	-30.6760006	64.09500122	92.83499908	0	0	0	1.0
35	-30.6760006	64.09500122	92.83499908	0	0	0	1.0
36	-30.6760006	64.09500122	92.83499908	0	0	0	1.0
37	-30.6760006	64.09500122	92.83499908	0	0	0	1.0
[LeftShoulder]
34	45.70400238	109.4599991	-26.28000069	1.826365232	-4.06379509	25.86608124	1.0
35	45.70400238	109.4599991	-26.28000069	2.491731167	-1.705926895	27.80491447	1.0
36	45.70400238	109.4599991	-26.28000069	3.261032104	1.208198905	29.16037369	1.0
37	45.70400238	109.4599991	-26.28000069	3.886385918	4.104395866	28.76649857	1.0
[LeftArm]
34	105.923996	-5.24600029	-22.32099915	-18.72172165	-22.40082169	24.90268707	1.0
35	105.923996	-5.24600029	-22.32099915	-8.848743439	-22.77649307	16.67869759	1.0
36	105.923996	-5.24600029	-22.32099915	0.7681390047	-22.36981773	7.298830509	1.0
37	105.923996	-5.24600029	-22.32099915	8.216157913	-19.60361099	-1.839402676	1.0
[LeftForeArm]
34	278.414978	-0.0009999999311	0	-1.445474845e-05	-50.41485977	-0.0001939367794	1.0
35	278.414978	-0.0009999999311	0	-2.140536344e-05	-55.17587662	-0.0001956010528	1.0
36	278.414978	-0.0009999999311	0	5.413027338e-06	-62.20383453	-0.0001966095733	1.0
37	278.414978	-0.0009999999311	0	7.691651263e-06	-71.9224472	-0.0001861583441	1.0
[LeftHand]
34	283.2879944	0	0	-39.72632217	0.7255776525	30.62085342	1.0
35	283.2879944	0	0	-39.01656342	-1.613598228	35.0405159	1.0
36	283.2879944	0	0	-35.69796753	-4.123826027	41.01793289	1.0
37	283.2879944	0	0	-31.81460381	-6.72743845	46.99211502	1.0
[LeftHandThumb1]
34	24.6609993	-15.75	26.8239994	-2.684954405	-3.673170567	2.999898911	1.0
35	24.6609993	-15.75	26.8239994	-2.669177294	-3.629775286	3.011994362	1.0
36	24.6609993	-15.75	26.8239994	-2.697733641	-3.7094841	2.989202023	1.0
37	24.6609993	-15.75	26.8239994	-2.760785818	-3.882341385	2.941324949	1.0
[LeftHandThumb2]
34	32.29800034	-18.64699936	18.64699936	0.9237022996	1.348823428	15.12632847	1.0
35	32.29800034	-18.64699936	18.64699936	2.896881104	1.389570951	14.3833189	1.0
36	32.29800034	-18.64699936	18.64699936	4.482435703	0.04629059136	13.23065376	1.0
37	32.29800034	-18.64699936	18.64699936	3.387186766	-1.769313335	13.18960476	1.0
[LeftHandThumb3]
34	26.52600098	-15.31499958	15.31499958	-21.97246361	-12.13514614	10.31691933	1.0
35	26.52600098	-15.31499958	15.31499958	-22.46688271	-15.02458763	9.249570847	1.0
36	26.52600098	-15.31499958	15.31499958	-22.84078026	-16.46235466	9.101716995	1.0
37	26.52600098	-15.31499958	15.31499958	-22.98873329	-16.42827988	9.235013962	1.0
[LeftHandThumb4]
34	19.54599953	-11.28499985	11.28499985	0	0	0	1.0
35	19.54599953	-11.28499985	11.28499985	0	0	0	1.0
36	19.54599953	-11.28499985	11.28499985	0	0	0	1.0
37	19.54599953	-11.28499985	11.28499985	0	0	0	1.0
[LeftHandIndex1]
34	91.09299469	-5.170999527	22.60099792	0.6451012492	-15.23478985	-3.668172598	1.0
35	91.09299469	-5.170999527	22.60099792	1.015287161	-13.85183907	-5.135083675	1.0
36	91.09299469	-5.170999527	22.60099792	1.210722446	-13.46322536	-5.471029758	1.0
37	91.09299469	-5.170999527	22.60099792	1.01414156	-14.42701817	-5.33569622	1.0
[LeftHandIndex2]
34	36.76399994	0	0	-0.2573841214	1.715108991	-17.06786919	1.0
35	36.76399994	0	0	-0.2673217952	1.747105837	-17.39624596	1.0
36	36.76399994	0	0	-0.2803348601	1.788140655	-17.81853485	1.0
37	36.76399994	0	0	-0.2886211276	1.813685536	-18.08215714	1.0
[LeftHandIndex3]
34	28.83100128	0	0	-0.05318758264	0.7867350578	-7.735413074	1.0
35	28.83100128	0	0	-0.05775251985	0.819539845	-8.060310364	1.0
36	28.83100128	0	0	-0.06389499456	0.8618552089	-8.479483604	1.0
37	28.83100128	0	0	-0.06792274117	0.8884286284	-8.742981911	1.0
[LeftHandIndex4]
34	23.92700005	0	0	0	0	0	1.0
35	23.92700005	0	0	0	0	0	1.0
36	23.92700005	0	0	0	0	0	1.0
37	23.92700005	0	0	0	0	0	1.0
[LeftHandMiddle1]
34	95.33399963	0	0	-0.3423700631	1.716317534	-8.409338951	1.0
35	95.33399963	0	0	-0.327316761	1.66792953	-8.13093853	1.0
36	95.33399963	0	0	-0.2518565953	1.068199992	-6.766075611	1.0
37	95.33399963	0	0	-0.2209719121	0.6117277145	-6.207706451	1.0
[LeftHandMiddle2]
34	36.98199844	0	0	-0.2783056796	1.781811476	-17.75360298	1.0
35	36.98199844	0	0	-0.2794136703	1.785271168	-17.78927994	1.0
36	36.98199844	0	0	-0.2807563841	1.789458275	-17.83231163	1.0
37	36.98199844	0	0	-0.2841770351	1.800032616	-17.94132996	1.0
[LeftHandMiddle3]
34	29.50900078	0	0	-0.3106766343	1.879887938	-18.76683044	1.0
35	29.50900078	0	0	-0.3118551075	1.883343697	-18.80266571	1.0
36	29.50900078	0	0	-0.3133329451	1.887649894	-18.84734535	1.0
37	29.50900078	0	0	-0.3169861436	1.898334384	-18.958004	1.0
[LeftHandMiddle4]
34	28.3390007	0	0	0	0	0	1.0
35	28.3390007	0	0	0	0	0	1.0
36	28.3390007	0	0	0	0	0	1.0
37	28.3390007	0	0	0	0	0	1.0
[LeftHandRing1]
34	91.04499817	-0.4390000105	-18.65100098	-0.6383162737	11.77999783	-14.1136837	1.0
35	91.04499817	-0.4390000105	-18.65100098	-0.6209877729	11.76178551	-13.84528637	1.0
36	91.04499817	-0.4390000105	-18.65100098	-0.5648092628	11.80842972	-13.0014801	1.0
37	91.04499817	-0.4390000105	-18.65100098	-0.5787981153	12.09191895	-13.2721262	1.0
[LeftHandRing2]
34	31.54000092	0	0	-0.3918001056	2.10340476	-21.10051537	1.0
35	31.54000092	0	0	-0.3846547604	2.08485055	-20.90537453	1.0
36	31.54000092	0	0	-0.381808728	2.077363014	-20.82666588	1.0
37	31.54000092	0	0	-0.3943590522	2.110033274	-21.17017365	1.0
[LeftHandRing3]
34	29.37700081	0	0	-0.2880145609	1.811829209	-18.06291389	1.0
35	29.37700081	0	0	-0.281907469	1.793041468	-17.86917114	1.0
36	29.37700081	0	0	-0.2794693112	1.785443544	-17.79090881	1.0
37	29.37700081	0	0	-0.2902831733	1.818784595	-18.13491249	1.0
[LeftHandRing4]
34	26.47500038	0	0	0	0	0	1.0
35	26.47500038	0	0	0	0	0	1.0
36	26.47500038	0	0	0	0	0	1.0
37	26.47500038	0	0	0	0	0	1.0
[LeftHandPinky1]
34	80.77799988	-4.887000084	-38.06099701	-0.9122521877	24.77744102	-19.66062546	1.0
35	80.77799988	-4.887000084	-38.06099701	-0.8562535048	24.43325233	-18.69008636	1.0
36	80.77799988	-4.887000084	-38.06099701	-0.8863988519	24.19607925	-18.2904644	1.0
37	80.77799988	-4.887000084	-38.06099701	-0.930206418	24.64388657	-18.69203568	1.0
[LeftHandPinky2]
34	36	0	0	-0.2690009475	1.752572775	-17.45237732	1.0
35	36	0	0	-0.2729378343	1.764896274	-17.5793705	1.0
36	36	0	0	-0.2894507349	1.816230059	-18.10848808	1.0
37	36	0	0	-0.3129238188	1.886310935	-18.83358765	1.0
[LeftHandPinky3]
34	21.14200211	0	0	-0.2421303391	1.66472888	-16.5513382	1.0
35	21.14200211	0	0	-0.2458633333	1.677096605	-16.67809296	1.0
36	21.14200211	0	0	-0.2615166008	1.728521705	-17.20522308	1.0
37	21.14200211	0	0	-0.2838408053	1.798865557	-17.92929077	1.0
[LeftHandPinky4]
34	19.75699997	0	0	0	0	0	1.0
35	19.75699997	0	0	0	0	0	1.0
36	19.75699997	0	0	0	0	0	1.0
37	19.75699997	0	0	0	0	0	1.0
[RightShoulder]
34	-45.70000076	109.4620056	-26.28000069	-2.114768028	14.25449562	-30.07432175	1.0
35	-45.70000076	109.4620056	-26.28000069	-2.494394064	15.57977486	-29.5525589	1.0
36	-45.70000076	109.4620056	-26.28000069	-2.8960917	16.77986145	-29.33171463	1.0
37	-45.70000076	109.4620056	-26.28000069	-3.097559929	17.43532944	-29.04889107	1.0
[RightArm]
34	-105.9280014	-5.248000145	-22.32099915	-24.94246292	-14.87752724	19.72745705	1.0
35	-105.9280014	-5.248000145	-22.32099915	-22.07874107	-14.5043478	17.01078606	1.0
36	-105.9280014	-5.248000145	-22.32099915	-15.98310089	-15.43624115	15.29602909	1.0
37	-105.9280014	-5.248000145	-22.32099915	-8.319201469	-19.33170128	15.69041443	1.0
[RightForeArm]
34	-278.414978	0	0	-2.363495241e-06	37.28830338	1.473442808e-07	1.0
35	-278.414978	0	0	-9.072963394e-07	38.06822205	5.102038472e-07	1.0
36	-278.414978	0	0	1.595675599e-06	40.66444016	9.720787375e-07	1.0
37	-278.414978	0	0	-4.004776656e-06	45.95261383	-2.682046443e-06	1.0
[RightHand]
34	-283.2879944	0	0.0009999999311	-12.82994843	-2.104572773	-19.84379196	1.0
35	-283.2879944	0	0.0009999999311	-12.77247524	-0.957280457	-22.72179031	1.0
36	-283.2879944	0	0.0009999999311	-10.47388268	-0.2262529135	-26.94828224	1.0
37	-283.2879944	0	0.0009999999311	-8.237468719	-0.4705618918	-31.42304611	1.0
[RightHandPinky1]
34	-80.76699829	-4.885000229	-38.06000137	-0.9678687453	-20.39820862	21.59400558	1.0
35	-80.76699829	-4.885000229	-38.06000137	-1.061612844	-19.19681168	22.04350662	1.0
36	-80.76699829	-4.885000229	-38.06000137	-0.9758951664	-18.86493301	20.38684845	1.0
37	-80.76699829	-4.885000229	-38.06000137	-0.4491749406	-19.49630547	14.52853394	1.0
[RightHandPinky2]
34	-36	0	0.0009999999311	-0.1785585731	-1.275352478	15.97342968	1.0
35	-36	0	0.0009999999311	-0.1378085911	-1.121011138	14.00145435	1.0
36	-36	0	0.0009999999311	-0.09066975117	-0.9128108621	11.36463451	1.0
37	-36	0	0.0009999999311	-0.05568465218	-0.7142043114	8.874070168	1.0
[RightHandPinky3]
34	-21.14200211	0	0	-0.1601030082	-1.208752632	15.10004997	1.0
35	-21.14200211	0	0	-0.121924378	-1.055344343	13.14712334	1.0
36	-21.14200211	0	0	-0.07971617579	-0.8564231992	10.63559055	1.0
37	-21.14200211	0	0	-0.04979271069	-0.6759649515	8.376481056	1.0
[RightHandPinky4]
34	-19.75699997	0	0	0	0	0	1.0
35	-19.75699997	0	0	0	0	0	1.0
36	-19.75699997	0	0	0	0	0	1.0
37	-19.75699997	0	0	0	0	0	1.0
[RightHandRing1]
34	-91.03599548	-0.4390000105	-18.65100098	-0.7456752658	-8.931220055	16.0195179	1.0
35	-91.03599548	-0.4390000105	-18.65100098	-0.7777879238	-7.473927975	16.40775108	1.0
36	-91.03599548	-0.4390000105	-18.65100098	-0.7266125679	-6.284956455	15.49294567	1.0
37	-91.03599548	-0.4390000105	-18.65100098	-0.4808625281	-6.185141563	11.20011616	1.0
[RightHandRing2]
34	-31.54000092	0	0	-0.2452485561	-1.48822844	18.70958138	1.0
35	-31.54000092	0	0	-0.1958258152	-1.333312035	16.70061111	1.0
36	-31.54000092	0	0	-0.147831291	-1.161883473	14.50159931	1.0
37	-31.54000092	0	0	-0.1076501235	-0.9925191998	12.35157394	1.0
[RightHandRing3]
34	-29.37700081	0	0	-0.1719191223	-1.251038551	15.64249611	1.0
35	-29.37700081	0	0	-0.1305295378	-1.092344761	13.616395	1.0
36	-29.37700081	0	0	-0.09168755263	-0.9178525209	11.40847206	1.0
37	-29.37700081	0	0	-0.06080456078	-0.7472044826	9.266701698	1.0
[RightHandRing4]
34	-26.47500038	0	0	0	0	0	1.0
35	-26.47500038	0	0	0	0	0	1.0
36	-26.47500038	0	0	0	0	0	1.0
37	-26.47500038	0	0	0	0	0	1.0
[RightHandMiddle1]
34	-95.32500458	0	0	-0.5165508986	-1.298109531	11.82584476	1.0
35	-95.32500458	0	0	-0.5014356375	-1.012575984	11.56766224	1.0
36	-95.32500458	0	0	-0.4821900129	-0.4204975069	11.24845123	1.0
37	-95.32500458	0	0	-0.3696801662	-0.05877970904	9.161812782	1.0
[RightHandMiddle2]
34	-36.98199844	0	0	-0.1015958413	-0.966603756	12.02295303	1.0
35	-36.98199844	0	0	-0.09596060961	-0.9388763905	11.67364597	1.0
36	-36.98199844	0	0	-0.08736547828	-0.8961940408	11.13576698	1.0
37	-36.98199844	0	0	-0.0693859458	-0.7985816002	9.910063744	1.0
[RightHandMiddle3]
34	-29.50900078	0	0	-0.1194467917	-1.048916936	13.03862762	1.0
35	-29.50900078	0	0	-0.1134875268	-1.022064447	12.69887829	1.0
36	-29.50900078	0	0	-0.1044321284	-0.9809190631	12.17867374	1.0
37	-29.50900078	0	0	-0.08482815325	-0.8844040036	10.96237278	1.0
[RightHandMiddle4]
34	-28.3390007	0	0.0009999999311	0	0	0	1.0
35	-28.3390007	0	0.0009999999311	0	0	0	1.0
36	-28.3390007	0	0.0009999999311	0	0	0	1.0
37	-28.3390007	0	0.0009999999311	0	0	0	1.0
[RightHandIndex1]
34	-91.08300018	-5.167999744	22.60099792	-0.03457474336	18.68591881	9.594993591	1.0
35	-91.08300018	-5.167999744	22.60099792	-0.04429960623	18.66934776	9.29983139	1.0
36	-91.08300018	-5.167999744	22.60099792	0.007784725633	18.44064331	7.80033493	1.0
37	-91.08300018	-5.167999744	22.60099792	0.09050345421	17.02563858	5.252087116	1.0
[RightHandIndex2]
34	-36.76399994	0	0	-0.1224069148	-1.059047937	13.19347382	1.0
35	-36.76399994	0	0	-0.09813479334	-0.9492779374	11.8049078	1.0
36	-36.76399994	0	0	-0.07314293087	-0.8206627965	10.18666458	1.0
37	-36.76399994	0	0	-0.0453367196	-0.6454194188	7.995280266	1.0
[RightHandIndex3]
34	-28.83100128	0	0	-0.01150948741	-0.3280224204	4.053105831	1.0
35	-28.83100128	0	0	-0.005988353398	-0.2364996672	2.921319723	1.0
36	-28.83100128	0	0	-0.001735156286	-0.1268767565	1.566690445	1.0
37	-28.83100128	0	0	-0.0004950729781	0.0494010523	-0.6097775102	1.0
[RightHandIndex4]
34	-23.92700005	0	0	0	0	0	1.0
35	-23.92700005	0	0	0	0	0	1.0
36	-23.92700005	0	0	0	0	0	1.0
37	-23.92700005	0	0	0	0	0	1.0
[RightHandThumb1]
34	-24.64799881	-15.72700024	26.82600021	-4.943582535	9.073408127	-1.585820436	1.0
35	-24.64799881	-15.72700024	26.82600021	-4.789764881	8.645864487	-1.689189076	1.0
36	-24.64799881	-15.72700024	26.82600021	-4.577959538	8.054917336	-1.834518671	1.0
37	-24.64799881	-15.72700024	26.82600021	-4.315561771	7.318384647	-2.020068169	1.0
[RightHandThumb2]
34	-32.29800034	-18.64699936	18.64699936	15.25963497	2.740675926	-20.80266571	1.0
35	-32.29800034	-18.64699936	18.64699936	15.33159256	1.991935015	-21.1728344	1.0
36	-32.29800034	-18.64699936	18.64699936	15.4294281	0.7142704129	-21.10519981	1.0
37	-32.29800034	-18.64699936	18.64699936	15.56422234	-1.085114479	-20.52442932	1.0
[RightHandThumb3]
34	-26.52600098	-15.31399918	15.31399918	-15.25916004	-6.633273125	-19.85717583	1.0
35	-26.52600098	-15.31399918	15.31399918	-15.61594963	-6.483176708	-22.8754921	1.0
36	-26.52600098	-15.31399918	15.31399918	-15.88729954	-6.475837231	-25.45521164	1.0
37	-26.52600098	-15.31399918	15.31399918	-15.59359932	-7.356294155	-26.00583649	1.0
[RightHandThumb4]
34	-19.54599953	-11.28499985	11.28499985	0	0	0	1.0
35	-19.54599953	-11.28499985	11.28499985	0	0	0	1.0
36	-19.54599953	-11.28499985	11.28499985	0	0	0	1.0
37	-19.54599953	-11.28499985	11.28499985	0	0	0	1.0
[LeftUpLeg]
34	82.07800293	-67.51699829	-15.99599934	-93.23206329	20.26886368	-6.109538078	1.0
35	82.07800293	-67.51699829	-15.99599934	-79.01825714	23.66640472	-2.710729361	1.0
36	82.07800293	-67.51699829	-15.99599934	-64.11811066	24.09890747	0.5157079101	1.0
37	82.07800293	-67.51699829	-15.99599934	-48.38299179	20.47291183	3.34271121	1.0
[LeftLeg]
34	0	-443.7049866	2.845999956	104.7332535	-0.8523214459	2.545375347	1.0
35	0	-443.7049866	2.845999956	89.19081879	1.265717864	2.515207052	1.0
36	0	-443.7049866	2.845999956	70.14289093	2.725273371	-1.517850399	1.0
37	0	-443.7049866	2.845999956	48.85086823	-0.328235954	-3.941867113	1.0
[LeftFoot]
34	0	-444.2789917	-29.8219986	-8.223203659	-0.02869465575	1.783152819	1.0
35	0	-444.2789917	-29.8219986	-3.043186188	-0.337795347	-0.3147687316	1.0
36	0	-444.2789917	-29.8219986	4.961191177	-0.4239721298	-3.060459375	1.0
37	0	-444.2789917	-29.8219986	14.5005827	0.4290494025	-8.307793617	1.0
[LeftToeBase]
34	0	-87.28699493	107.1060028	-6.018989086	-1.683320079e-06	4.74423814e-06	1.0
35	0	-87.28699493	107.1060028	-5.570518494	-8.615123193e-07	-1.015055773e-06	1.0
36	0	-87.28699493	107.1060028	-5.661474705	-7.467585419e-06	-8.88915929e-06	1.0
37	0	-87.28699493	107.1060028	-4.974319458	5.164003596e-06	-8.306591326e-07	1.0
[RightUpLeg]
34	-82.07800293	-67.51699829	-15.99599934	-117.3050461	-10.85240841	0.1011125967	1.0
35	-82.07800293	-67.51699829	-15.99599934	-117.9436264	-8.486680031	1.991570592	1.0
36	-82.07800293	-67.51699829	-15.99599934	-110.2007828	-7.826649666	2.514561653	1.0
37	-82.07800293	-67.51699829	-15.99599934	-94.88251495	-9.002545357	1.159975052	1.0
[RightLeg]
34	0	-443.7049866	2.861999989	123.7130966	1.163153172	-2.00954771	1.0
35	0	-443.7049866	2.861999989	127.8453674	3.258114815	-3.091956615	1.0
36	0	-443.7049866	2.861999989	126.6221466	3.328588963	-4.230935097	1.0
37	0	-443.7049866	2.861999989	119.6953049	1.884363174	-5.941915035	1.0
[RightFoot]
34	0	-444.2770081	-29.83799934	-6.260741711	-0.6492757797	6.7166605	1.0
35	0	-444.2770081	-29.83799934	-4.107194901	-1.012919664	6.10838604	1.0
36	0	-444.2770081	-29.83799934	-0.6607055664	-1.196530938	6.362338543	1.0
37	0	-444.2770081	-29.83799934	3.048194885	-1.250996232	7.483555317	1.0
[RightToeBase]
34	0	-87.28699493	107.1060028	-8.782343864	2.282418109e-06	2.348725587e-07	1.0
35	0	-87.28699493	107.1060028	-9.920186043	3.350240604e-06	6.806324109e-07	1.0
36	0	-87.28699493	107.1060028	-10.513587	5.405795036e-06	-2.945266033e-06	1.0
37	0	-87.28699493	107.1060028	-9.328330994	7.962141353e-06	1.201397936e-06	1.0
[EndOfFile]
